<svg xmlns="http://www.w3.org/2000/svg" viewBox="0 0 64 64" role="img" aria-labelledby="title">
  <title>Poker Scorekeeper Icon</title>
  <defs>
    <radialGradient id="bg" cx="50%" cy="40%" r="60%">
      <stop offset="0%" stop-color="#4a4a4a" />
      <stop offset="100%" stop-color="#0f0f0f" />
    </radialGradient>
  </defs>
  <rect width="64" height="64" rx="14" ry="14" fill="url(#bg)" />
  <path
    fill="#ffffff"
    d="M32 13c-4.9 5.6-13.5 10.7-13.5 17.6 0 5.1 4 9.2 9 9.2 1.9 0 3.7-.6 5-1.6-1.2 5.1-4.8 9.5-9.5 12v1.8h18v-1.8c-4.7-2.5-8.3-6.9-9.5-12 1.3 1 3.1 1.6 5 1.6 5 0 9-4.1 9-9.2C45.5 23.7 36.9 18.6 32 13z"
  />
</svg>
